<svg width="1196" height="628" viewBox="0 0 1196 628" fill="none" xmlns="http://www.w3.org/2000/svg">
<g clip-path="url(#clip0_1_81)">
<path d="M1078.52 141.28L1071.09 145.643" stroke="#725B78" stroke-width="2"/>
<path d="M1066.06 133.851C1078.07 128.036 1086.7 116.485 1090.06 101.739C1093.42 86.9934 1091.23 70.2605 1083.97 55.2218C1080.38 47.7754 1075.65 40.969 1070.05 35.1913C1064.46 29.4136 1058.11 24.7776 1051.36 21.5482C1044.62 18.3188 1037.61 16.5591 1030.74 16.3697C1023.87 16.1802 1017.28 17.5647 1011.33 20.444C999.322 26.2591 990.689 37.8101 987.329 52.5559C983.97 67.3018 986.16 84.0346 993.417 99.0733C997.011 106.52 1001.74 113.326 1007.34 119.104C1012.93 124.882 1019.28 129.518 1026.03 132.747C1032.77 135.976 1039.78 137.736 1046.65 137.925C1053.52 138.115 1060.11 136.73 1066.06 133.851Z" stroke="#DC9090" stroke-width="2"/>
<path d="M1058.58 122.866C1067.97 118.339 1074.74 109.326 1077.38 97.8096C1080.02 86.2929 1078.34 73.2161 1072.69 61.4558C1069.89 55.6327 1066.2 50.3081 1061.84 45.786C1057.47 41.2639 1052.52 37.6329 1047.25 35.1003C1041.99 32.5677 1036.51 31.183 1031.15 31.0254C1025.78 30.8678 1020.63 31.9404 1015.98 34.1818C1006.59 38.7085 999.826 47.7216 997.182 59.2383C994.538 70.755 996.226 83.8318 1001.88 95.5921C1004.67 101.415 1008.36 106.74 1012.72 111.262C1017.09 115.784 1022.04 119.415 1027.31 121.948C1032.58 124.48 1038.05 125.865 1043.41 126.023C1048.78 126.18 1053.94 125.108 1058.58 122.866Z" stroke="#DC9090" stroke-width="2"/>
<path d="M1053.19 111.51C1056.65 109.837 1059.65 107.328 1062.05 104.125C1064.44 100.922 1066.16 97.0877 1067.13 92.8419C1068.09 88.5961 1068.28 84.0215 1067.67 79.3794C1067.06 74.7373 1065.67 70.1184 1063.58 65.7867C1059.35 57.0383 1052.53 49.9901 1044.62 46.1927C1036.7 42.3954 1028.33 42.1598 1021.35 45.5379C1017.9 47.2106 1014.89 49.7201 1012.5 52.9232C1010.11 56.1262 1008.38 59.9601 1007.42 64.2058C1006.45 68.4516 1006.27 73.0262 1006.88 77.6683C1007.49 82.3105 1008.88 86.9293 1010.97 91.261C1015.19 100.009 1022.01 107.058 1029.93 110.855C1037.85 114.652 1046.22 114.888 1053.19 111.51Z" stroke="#DC9090" stroke-width="2"/>
<path d="M1044.37 94.7181C1048.1 92.9213 1050.78 89.3444 1051.83 84.7742C1052.88 80.204 1052.21 75.0149 1049.97 70.3485C1048.86 68.0379 1047.4 65.9252 1045.66 64.131C1043.93 62.3368 1041.96 60.8962 1039.87 59.8915C1037.78 58.8868 1035.61 58.3376 1033.48 58.2754C1031.35 58.2131 1029.31 58.639 1027.46 59.5287C1023.73 61.3255 1021.05 64.9025 1020 69.4727C1018.95 74.0429 1019.62 79.2319 1021.86 83.8983C1022.97 86.2089 1024.43 88.3216 1026.17 90.1158C1027.9 91.91 1029.87 93.3507 1031.96 94.3554C1034.05 95.3601 1036.22 95.9092 1038.35 95.9715C1040.48 96.0337 1042.52 95.6078 1044.37 94.7181Z" stroke="#DC9090" stroke-width="2"/>
<path d="M980.5 92.5L981.609 95.6873C980.179 96.7444 977.428 98.4607 974.407 100.183C956.205 110.539 937.993 120.871 919.769 131.179C919.544 131.308 919.464 131.496 919.528 131.742C921.111 138.133 912.015 137.151 909.123 134.463C903.948 129.642 912.393 127.694 915.752 128.901C915.872 128.947 916.002 128.964 916.131 128.953C916.26 128.942 916.386 128.902 916.499 128.837L980.5 92.5Z" stroke="#0C2836" stroke-width="1.5"/>
<path d="M258.923 408.073C257.908 409.259 254.831 409.613 255.877 410.661C256.681 411.466 258.923 414.512 259.727 414.512C260.295 414.512 262.138 412.5 262.138 412.5C262.138 412.5 264.229 411.624 265.351 410.89C266.748 409.978 267.699 409.275 268.164 407.671C268.469 406.614 268.164 404.854 268.164 404.854C268.164 404.854 269.235 403.279 268.565 402.842C268.171 402.584 267.36 402.842 267.36 402.842C267.36 402.842 264.545 402.934 262.941 403.646C262.105 404.018 260.932 404.854 260.932 404.854C260.932 404.854 259.887 406.948 258.923 408.073Z" fill="#D9D9D9"/>
<path d="M1101.13 55.3514L1102.31 58.6514C1106.11 70.3007 1107.44 82.1941 1106.31 94.3317C1105.7 99.4239 1104.74 104.183 1103.43 108.61C1099.92 119.047 1094.3 127.702 1086.57 134.576C1086.07 133.599 1086.5 132.542 1087.87 131.404C1094.03 126.245 1098.26 115.436 1100.04 107.773C1106.95 78.1939 1096.48 48.1558 1076.05 26.4C1057.52 6.65632 1022.22 -5.71465 998.994 14.1256C998.839 14.2597 998.665 14.2919 998.472 14.2222L997.741 13.9485C1010.87 1.97729 1026.23 -2.15978 1043.81 1.5373C1070.76 7.21169 1091.74 30.0219 1101.13 55.3514Z" fill="#0C2836"/>
<path d="M243.006 627L841.798 280.54C842.224 280.292 842.709 280.159 843.204 280.154L1002.53 278.222C1002.81 278.217 1003.08 278.139 1003.31 277.997L1038.67 256.507C1038.94 256.346 1039.22 256.308 1039.52 256.394C1041.53 256.963 1043.33 257.016 1044.92 256.555C1048.3 255.589 1047.83 251.613 1045.21 250.051C1041.98 248.136 1034.36 247.444 1035.65 253.633C1035.71 253.918 1035.62 254.132 1035.37 254.277C1024.3 260.931 1013.25 267.617 1002.22 274.335C1001.16 274.979 998.737 274.576 997.821 274.592C948.54 275.247 899.205 275.85 849.817 276.403C849.329 276.409 849.297 276.288 849.72 276.041C871.816 263.034 894.006 250.167 916.29 237.439C917.287 236.87 918.352 236.567 919.488 236.529C970.146 234.807 1020.88 233.087 1071.69 231.37C1072.23 231.354 1072.76 231.199 1073.22 230.919L1085.92 223.144C1086.18 222.989 1086.45 222.924 1086.74 222.951L1130.71 226.758C1131.16 226.795 1131.61 226.688 1131.99 226.452L1186.22 193.066C1186.47 192.91 1186.75 192.878 1187.03 192.969C1189.21 193.646 1192.93 193.581 1194.14 191.239C1197.35 185.001 1179.24 181.894 1182.9 190.37C1182.94 190.474 1182.95 190.59 1182.91 190.697C1182.88 190.804 1182.81 190.896 1182.71 190.957L1130.82 222.83C1130.57 222.982 1130.28 223.05 1130 223.024L1092.14 219.764C1092.1 219.762 1092.06 219.748 1092.03 219.724C1092 219.699 1091.98 219.666 1091.97 219.629C1091.96 219.592 1091.97 219.553 1091.98 219.518C1092 219.482 1092.02 219.453 1092.06 219.434L1148.69 185.001C1148.94 184.846 1149.21 184.811 1149.5 184.897C1151.84 185.597 1155.65 185.565 1156.91 183.037C1160.06 176.767 1142.24 174.176 1145.58 182.039C1145.64 182.158 1145.64 182.292 1145.6 182.416C1145.56 182.54 1145.48 182.646 1145.37 182.715C1121.1 197.52 1096.8 212.26 1072.47 226.935C1071.54 227.499 1070.53 227.799 1069.44 227.837C1019.08 229.49 968.716 231.182 918.347 232.916C917.169 232.959 916.068 233.275 915.045 233.865C876.423 256.225 837.328 278.877 797.758 301.821C797.602 301.912 797.428 301.967 797.247 301.982C797.066 301.998 796.884 301.973 796.713 301.91L788.815 299.06C788.771 299.043 788.732 299.013 788.703 298.975C788.675 298.937 788.658 298.891 788.654 298.844C788.649 298.796 788.658 298.748 788.68 298.705C788.701 298.663 788.734 298.627 788.775 298.602L854.951 259.211C855.335 258.982 855.628 258.623 855.779 258.197L863.468 236.529C863.546 236.296 863.71 236.101 863.926 235.982L991.16 165.105C990.48 164.3 989.979 163.216 989.658 161.853L988.139 162.626C987.802 162.792 987.668 162.693 987.737 162.328L991.49 142.471L1007.39 133.489L1004.46 130.857L988.541 139.799C988.423 139.865 988.32 139.955 988.241 140.063C988.162 140.172 988.108 140.296 988.083 140.427L983.672 164.372C983.564 164.941 983.256 165.368 982.748 165.652L861.13 233.358C860.83 233.524 860.601 233.794 860.487 234.115L852.637 256.016C852.546 256.268 852.388 256.461 852.163 256.595L777.863 300.686C777.75 300.752 777.624 300.791 777.494 300.802C777.363 300.814 777.231 300.796 777.108 300.751L768.125 297.443C768.08 297.427 768.041 297.399 768.012 297.362C767.984 297.324 767.967 297.279 767.963 297.232C767.96 297.185 767.97 297.138 767.993 297.096C768.016 297.055 768.051 297.022 768.093 297L808.131 274.262C808.226 274.207 808.334 274.174 808.445 274.166C808.556 274.157 808.668 274.174 808.774 274.214C813.33 275.912 820.971 272.306 814.591 267.968C811.996 266.197 803.029 265.666 805.094 271.035C805.156 271.198 805.159 271.377 805.101 271.541C805.044 271.705 804.93 271.842 804.78 271.928L775.308 288.46C775.147 288.549 774.968 288.602 774.784 288.616C774.6 288.63 774.414 288.604 774.24 288.541L763.722 284.669C763.671 284.652 763.627 284.62 763.595 284.578C763.563 284.536 763.544 284.485 763.541 284.431C763.538 284.377 763.55 284.323 763.576 284.276C763.603 284.228 763.642 284.188 763.69 284.162C778.79 276.242 793.853 268.322 808.878 260.402C813.016 258.213 825.173 259.316 830.187 259.42C830.482 259.426 830.755 259.345 831.007 259.179L843.831 250.84C844.098 250.664 844.328 250.436 844.507 250.17C844.686 249.903 844.811 249.603 844.875 249.287L850.821 219.539C850.869 219.292 851 219.107 851.215 218.983L926.462 174.642C926.741 174.476 927.03 174.449 927.33 174.562C931.211 175.995 938.876 173.089 933.148 168.453C930.271 166.135 921.433 165.765 923.409 171.745C923.5 172.019 923.422 172.228 923.176 172.373C906.565 182.074 895.547 188.551 890.12 191.802C888.361 192.857 887.332 193.251 885.146 193.203C880.446 193.098 868.659 192.076 864.834 194.257C850.339 202.531 835.879 210.709 821.453 218.79C821.197 218.935 820.972 219.13 820.794 219.364C820.616 219.598 820.488 219.866 820.417 220.15L817.283 232.594C817.248 232.731 817.179 232.856 817.082 232.958C816.985 233.06 816.863 233.134 816.729 233.173C815.708 233.463 814.704 233.495 813.844 233.922C810.935 235.362 811.586 238.252 813.836 239.894C816.064 241.52 818.542 241.92 821.268 241.093C825.463 239.821 823.92 235.805 821.027 234.276C820.918 234.217 820.831 234.122 820.781 234.007C820.732 233.892 820.722 233.762 820.754 233.64L823.743 222.066C823.813 221.792 823.971 221.586 824.217 221.446C838.112 213.682 851.962 205.864 865.766 197.992C869.382 195.931 876.838 196.664 880.944 196.881C880.976 196.884 881.006 196.897 881.031 196.918C881.056 196.939 881.073 196.967 881.081 196.997C881.089 197.027 881.087 197.059 881.076 197.087C881.064 197.116 881.043 197.139 881.016 197.155L847.977 216.601C847.762 216.724 847.631 216.909 847.583 217.156L841.597 247.057C841.533 247.371 841.408 247.668 841.229 247.932C841.049 248.196 840.819 248.421 840.552 248.595L829.834 255.525C829.608 255.672 829.346 255.75 829.078 255.75C823.266 255.755 817.462 255.75 811.666 255.734C810.515 255.729 809.427 255.991 808.404 256.523C793.636 264.18 778.897 271.882 764.188 279.631C763.957 279.754 763.719 279.77 763.473 279.679L757.808 277.53C757.363 277.364 757.35 277.165 757.768 276.934L793.25 257.609C793.431 257.511 793.588 257.374 793.711 257.207C793.833 257.04 793.917 256.847 793.957 256.643L800.369 224.175C800.439 223.837 800.621 223.579 800.916 223.402L933.083 143.486C933.324 143.341 933.584 143.268 933.863 143.268H953.548C953.988 143.268 954.4 143.158 954.786 142.938L994.655 120.152L992.502 117.247C979.882 124.378 967.288 131.565 954.721 138.809C951.435 140.709 938.828 139.654 934.514 139.654C931.508 139.646 929.644 141.288 927.033 142.866C883.917 168.896 840.801 194.949 797.686 221.028C797.332 221.237 797.118 221.543 797.043 221.945L790.743 254.092C790.647 254.591 790.374 254.964 789.924 255.211L736.113 284.146C735.995 284.209 735.864 284.247 735.73 284.257C735.596 284.267 735.461 284.248 735.334 284.202L730.168 282.311C730.125 282.295 730.088 282.267 730.062 282.231C730.035 282.194 730.019 282.151 730.017 282.106C730.014 282.06 730.025 282.015 730.047 281.976C730.07 281.937 730.103 281.905 730.143 281.884L764.461 264.233C764.723 264.099 764.889 263.89 764.959 263.606L774.794 222.943C774.886 222.562 775.123 222.232 775.453 222.026L876.79 159.245C877.063 159.074 877.286 158.834 877.436 158.55C877.586 158.266 877.657 157.947 877.642 157.627L876.388 129.754C876.378 129.465 876.495 129.247 876.742 129.102L968.172 76.0046C968.429 75.8544 968.702 75.8222 968.992 75.9081C971.316 76.6002 974.22 76.501 976.512 75.6103L975.918 69.968C972.977 67.9478 963.777 66.821 965.408 72.7932C965.494 73.1205 965.389 73.37 965.095 73.5417L935.679 90.6051C935.32 90.8144 935.191 90.7178 935.293 90.3154L944.589 53.5727C944.63 53.4102 944.703 53.2577 944.806 53.1247C944.908 52.9918 945.037 52.8812 945.184 52.8L977.187 34.7707C977.407 34.6455 977.663 34.5947 977.919 34.6259L981.714 35.1654C985 29 981.714 35.1654 985 29C981.979 26.5934 972.27 25.5307 974.455 31.6398C974.547 31.8866 974.477 32.0744 974.247 32.2032L942.404 50.1278C942.152 50.2705 941.932 50.4624 941.757 50.692C941.582 50.9216 941.455 51.1842 941.383 51.4639L930.874 92.9232C930.825 93.1096 930.741 93.2845 930.625 93.4378C930.509 93.5911 930.364 93.7198 930.199 93.8166L898.139 112.385C898.122 112.394 898.103 112.397 898.085 112.395C898.066 112.393 898.048 112.386 898.034 112.374C898.019 112.362 898.009 112.346 898.003 112.328C897.997 112.31 897.997 112.291 898.003 112.272C904.72 91.3134 911.421 70.3463 918.106 49.3712C918.628 47.7293 918.444 47.182 920.115 46.3288C943.438 34.3629 966.747 22.3649 990.043 10.3346C990.29 10.2112 990.539 10.2005 990.791 10.3025C993.756 11.4856 1001.84 10.0932 998.102 5.56977C995.756 2.72587 992.746 1.93172 989.071 3.18733C987.212 3.8205 986.559 5.19684 987.111 7.31635C987.17 7.55245 987.092 7.72684 986.878 7.83952L916.845 43.8739C916.536 44.0323 916.262 44.251 916.037 44.5176C915.812 44.7841 915.642 45.0933 915.535 45.4273L893.414 114.518C893.254 115.03 892.907 115.462 892.442 115.725L872.869 127.058C872.676 127.171 872.585 127.342 872.596 127.573L873.873 155.704C873.885 155.999 873.819 156.293 873.68 156.555C873.542 156.816 873.337 157.036 873.086 157.193L772.448 219.563C771.994 219.847 771.669 220.297 771.54 220.818L761.801 261.006C761.732 261.285 761.571 261.491 761.319 261.626C749.947 267.705 740.377 272.604 732.61 276.323C580.604 349.11 276.6 494.75 276.6 494.75C245.617 509.641 276.6 494.75 245.617 509.641C196.99 532.864 49.5635 603.701 1 627" stroke="#0C2836" stroke-width="1.5"/>
<path d="M1070.22 150.311L1039.52 167.841L1013.08 182.965C1012.81 183.115 1012.73 183.338 1012.84 183.633C1013.63 185.822 1012.63 187.335 1010.48 188.003C1004.17 189.959 996.447 182.329 1004.24 180.381C1005.82 179.984 1007.42 180.075 1009.02 180.655C1009.3 180.752 1009.56 180.73 1009.8 180.591L1036.8 165.185L1071.09 145.643L1078.52 141.28L1101.24 128.257C1101.44 128.143 1101.61 127.981 1101.73 127.786C1101.86 127.591 1101.93 127.369 1101.95 127.139L1103.5 106C1104 95.5 1104 95.5 1105 95L1173.42 57.1786C1173.66 57.0444 1173.76 56.8405 1173.7 56.5669C1172.12 49.1137 1186.41 50.7637 1185.45 57.5408C1185.42 57.8058 1185.29 58.0484 1185.09 58.2249C1183.07 60.0708 1180.79 60.5268 1178.23 59.5932C1177.2 59.2229 1176.93 59.4081 1176.05 59.891C1153.78 72.2056 1131.33 84.6464 1108.71 97.2132C1108.55 97.3044 1108.41 97.4352 1108.3 97.594C1108.2 97.7527 1108.14 97.9344 1108.13 98.1227L1105.49 129.762C1105.47 130.004 1105.36 130.184 1105.14 130.302L1070.22 150.311Z" stroke="#0C2836" stroke-width="1.5"/>
<path d="M1025.38 144.644L1026.94 143.713L1025.18 143.272L1023.18 142.772L1022.89 142.699L1022.63 142.85L989.626 161.85L988.701 162.382L989.515 163.072L989.515 163.072L989.515 163.072L989.515 163.072L989.515 163.072L989.516 163.073L989.521 163.078L989.545 163.098C989.567 163.117 989.599 163.145 989.641 163.182C989.723 163.255 989.841 163.362 989.98 163.493C990.258 163.757 990.612 164.111 990.927 164.484L991.338 164.97L991.885 164.644L1025.38 144.644Z" stroke="#0C2836" stroke-width="1.5"/>
<ellipse cx="1022.25" cy="161.781" rx="56.2449" ry="23.3415" fill="url(#paint0_linear_1_81)"/>
<path d="M1086.57 134.576L1078.52 141.28L1071.09 145.643C1056.03 151.945 1041.25 151.381 1026.45 145.313C1022.61 143.502 1026.45 145.313 1022.61 143.502L1015 139.252L1007.39 133.489L1004.46 130.857L994.655 120.152L992.502 117.247C987.761 110.668 983.955 103.59 981.084 96.0138L979.975 92.8265C978.047 87.1763 976.694 81.4375 975.918 75.6102L975.323 69.968C974.68 57.8707 976.215 45.9665 981.293 35.0363C984.58 28.8709 981.293 35.0363 984.58 28.8709C987.976 23.0543 992.363 18.0802 997.741 13.9485L998.472 14.2221C998.665 14.2919 998.839 14.2597 998.994 14.1256C1022.22 -5.71469 1057.52 6.65629 1076.05 26.3999C1096.48 48.1558 1106.95 78.1938 1100.04 107.773C1098.26 115.436 1094.03 126.245 1087.87 131.404C1086.5 132.542 1086.07 133.599 1086.57 134.576ZM1066.06 133.851C1078.07 128.036 1086.7 116.485 1090.06 101.739C1093.42 86.9933 1091.23 70.2605 1083.97 55.2217C1080.38 47.7753 1075.65 40.9689 1070.05 35.1912C1064.46 29.4135 1058.11 24.7776 1051.36 21.5482C1044.62 18.3187 1037.61 16.5591 1030.74 16.3696C1023.87 16.1801 1017.28 17.5646 1011.33 20.4439C999.322 26.259 990.689 37.81 987.329 52.5559C983.97 67.3017 986.16 84.0345 993.417 99.0733C997.011 106.52 1001.74 113.326 1007.34 119.104C1012.93 124.882 1019.28 129.517 1026.03 132.747C1032.77 135.976 1039.78 137.736 1046.65 137.925C1053.52 138.115 1060.11 136.73 1066.06 133.851Z" fill="#219CBA"/>
<path d="M1066.06 133.851C1060.11 136.73 1053.52 138.115 1046.65 137.925C1039.78 137.736 1032.77 135.976 1026.03 132.747C1019.28 129.518 1012.93 124.882 1007.34 119.104C1001.74 113.326 997.011 106.52 993.417 99.0733C986.16 84.0346 983.97 67.3018 987.329 52.5559C990.689 37.8101 999.322 26.2591 1011.33 20.444C1017.28 17.5647 1023.87 16.1802 1030.74 16.3697C1037.61 16.5591 1044.62 18.3188 1051.36 21.5482C1058.11 24.7776 1064.46 29.4136 1070.05 35.1913C1075.65 40.969 1080.38 47.7754 1083.97 55.2218C1091.23 70.2605 1093.42 86.9934 1090.06 101.739C1086.7 116.485 1078.07 128.036 1066.06 133.851ZM1058.58 122.866C1067.97 118.339 1074.74 109.326 1077.38 97.8095C1080.02 86.2929 1078.34 73.216 1072.69 61.4557C1069.89 55.6326 1066.2 50.308 1061.84 45.7859C1057.47 41.2639 1052.52 37.6329 1047.25 35.1002C1041.99 32.5676 1036.51 31.183 1031.15 31.0254C1025.78 30.8678 1020.63 31.9403 1015.98 34.1817C1006.59 38.7085 999.827 47.7216 997.182 59.2383C994.538 70.7549 996.227 83.8318 1001.88 95.5921C1004.67 101.415 1008.36 106.74 1012.72 111.262C1017.09 115.784 1022.04 119.415 1027.31 121.948C1032.58 124.48 1038.05 125.865 1043.41 126.022C1048.78 126.18 1053.94 125.108 1058.58 122.866Z" fill="white"/>
<path d="M1058.58 122.866C1053.94 125.108 1048.78 126.18 1043.41 126.023C1038.05 125.865 1032.58 124.48 1027.31 121.948C1022.04 119.415 1017.09 115.784 1012.72 111.262C1008.36 106.74 1004.67 101.415 1001.88 95.5921C996.227 83.8318 994.538 70.755 997.182 59.2383C999.827 47.7216 1006.59 38.7085 1015.98 34.1818C1020.63 31.9404 1025.78 30.8678 1031.15 31.0254C1036.51 31.183 1041.99 32.5677 1047.25 35.1003C1052.52 37.6329 1057.47 41.2639 1061.84 45.786C1066.2 50.3081 1069.89 55.6327 1072.69 61.4558C1078.34 73.2161 1080.02 86.2929 1077.38 97.8096C1074.74 109.326 1067.97 118.339 1058.58 122.866ZM1053.19 111.51C1056.65 109.837 1059.65 107.328 1062.05 104.125C1064.44 100.922 1066.16 97.0878 1067.13 92.842C1068.09 88.5962 1068.28 84.0216 1067.67 79.3795C1067.06 74.7374 1065.67 70.1185 1063.58 65.7868C1059.35 57.0384 1052.53 49.9902 1044.62 46.1928C1036.7 42.3955 1028.33 42.1599 1021.35 45.5381C1017.9 47.2107 1014.89 49.7202 1012.5 52.9233C1010.11 56.1263 1008.38 59.9602 1007.42 64.206C1006.45 68.4517 1006.27 73.0263 1006.88 77.6684C1007.49 82.3106 1008.88 86.9294 1010.97 91.2612C1015.19 100.01 1022.01 107.058 1029.93 110.855C1037.85 114.652 1046.22 114.888 1053.19 111.51Z" fill="#FC8602"/>
<path d="M1053.19 111.51C1046.22 114.888 1037.85 114.652 1029.93 110.855C1022.01 107.058 1015.19 100.009 1010.97 91.261C1008.88 86.9293 1007.49 82.3105 1006.88 77.6683C1006.27 73.0262 1006.45 68.4516 1007.42 64.2058C1008.38 59.9601 1010.11 56.1262 1012.5 52.9232C1014.89 49.7201 1017.9 47.2106 1021.35 45.5379C1028.33 42.1598 1036.7 42.3954 1044.62 46.1927C1052.53 49.9901 1059.35 57.0383 1063.58 65.7867C1065.67 70.1184 1067.06 74.7373 1067.67 79.3794C1068.28 84.0215 1068.09 88.5961 1067.13 92.8419C1066.16 97.0877 1064.44 100.922 1062.05 104.125C1059.65 107.328 1056.65 109.837 1053.19 111.51ZM1044.37 94.7181C1048.1 92.9213 1050.78 89.3443 1051.83 84.7741C1052.88 80.2039 1052.21 75.0149 1049.97 70.3485C1048.86 68.0379 1047.4 65.9252 1045.66 64.131C1043.93 62.3367 1041.96 60.8961 1039.87 59.8914C1037.78 58.8867 1035.61 58.3376 1033.48 58.2753C1031.35 58.2131 1029.31 58.639 1027.46 59.5287C1023.73 61.3255 1021.05 64.9024 1020 69.4726C1018.95 74.0428 1019.62 79.2319 1021.86 83.8983C1022.97 86.2089 1024.43 88.3216 1026.17 90.1158C1027.9 91.91 1029.87 93.3506 1031.96 94.3553C1034.05 95.36 1036.22 95.9092 1038.35 95.9714C1040.48 96.0337 1042.52 95.6078 1044.37 94.7181Z" fill="white"/>
<path d="M1101.5 59L1100.32 55.7L1109.91 50.1761C1110.15 50.0366 1110.23 49.8354 1110.16 49.5725C1108.43 43.1013 1117.74 43.9866 1120.61 46.8278C1125.44 51.6169 1117.35 53.5486 1114.11 52.3895C1113.99 52.3488 1113.87 52.3328 1113.75 52.3425C1113.63 52.3522 1113.51 52.3874 1113.4 52.4459L1101.5 59Z" stroke="#0C2836" stroke-width="1.5"/>
<path d="M1021.86 83.8984C1026.53 93.6157 1036.61 98.4599 1044.37 94.7182C1052.13 90.9765 1054.64 80.0658 1049.97 70.3485C1045.3 60.6312 1035.22 55.787 1027.46 59.5287C1019.7 63.2704 1017.19 74.1811 1021.86 83.8984Z" fill="#FFB701"/>
<path d="M1175.68 119.194C1175.7 119.18 1175.72 119.159 1175.73 119.133C1175.74 119.107 1175.74 119.078 1175.74 119.05C1175.25 115.959 1175.76 114.526 1178.99 113.866C1181.73 113.303 1187.54 114.687 1187.47 118.47C1187.42 122.068 1182.31 122.374 1179.71 121.392C1179.43 121.284 1179.15 121.309 1178.89 121.464L1043.66 202.95C1043.4 203.1 1043.13 203.178 1042.83 203.183C1013.5 203.554 984.162 203.782 954.818 203.868C953.731 203.868 952.716 204.139 951.773 204.681C946.159 207.889 940.545 211.095 934.931 214.299C934.68 214.444 934.589 214.656 934.658 214.935C936.747 223.402 920.043 219.345 923.048 213.792C924.398 211.289 928.608 211.409 930.898 212.134C931.025 212.174 931.158 212.188 931.291 212.174C931.424 212.16 931.553 212.119 931.669 212.053C937.685 208.512 943.703 205.024 949.724 201.59C952.456 200.028 954.882 200.262 957.968 200.246C976.925 200.154 1004.11 199.929 1039.52 199.57C1041.35 199.553 1042.05 199.634 1043.67 198.66C1087.65 172.072 1131.65 145.584 1175.68 119.194Z" stroke="#0C2836" stroke-width="1.5"/>
<path d="M313.393 368.296C313.278 368.246 313.186 368.157 313.131 368.045C313.077 367.933 313.064 367.805 313.095 367.684C313.489 366.115 312.557 364.803 312.485 363.322C312.252 358.259 311.384 353.849 308.419 349.47C301.734 339.624 297.095 332.055 294.502 326.764C294.09 325.933 293.892 324.02 293.908 321.026C293.913 320.902 293.934 320.781 293.972 320.663L294.117 320.213C294.143 320.127 294.159 320.127 294.165 320.213C294.422 324.344 295.863 328.35 298.488 332.23C305.438 342.484 312.87 351.353 316.888 363.58C316.926 363.691 316.94 363.81 316.931 363.927C316.921 364.045 316.887 364.16 316.831 364.264C315.907 366.026 316.831 367.234 316.43 369.085C316.365 369.385 316.191 369.477 315.907 369.359L313.393 368.296Z" fill="#0F3A51"/>
<path d="M411.194 331.867C411.061 331.798 410.996 331.739 411.002 331.69L425.625 324.841C426.027 324.653 426.102 324.744 425.85 325.114C425.299 325.925 424.591 326.442 423.729 326.668C419.446 327.779 415.204 329.976 411.194 331.867Z" fill="#3B3A3C"/>
<path d="M411.002 331.69C410.996 331.739 411.061 331.798 411.194 331.867L368.263 351.41C368.039 351.302 367.851 351.107 367.701 350.822L411.002 331.69Z" fill="#C4C3C5"/>
<path d="M367.701 350.822C367.851 351.107 368.038 351.302 368.263 351.41C367.503 352.88 366.156 353.819 364.222 354.227C363.863 354.307 363.721 354.165 363.796 353.8L364.037 352.657C364.964 352.491 365.73 352.164 366.335 351.675C366.608 351.455 366.573 351.313 366.231 351.249C365.063 351.04 364.275 351.415 363.868 352.376L362.751 351.788C362.457 351.638 362.454 351.48 362.743 351.313C364.506 350.294 366.158 350.13 367.701 350.822Z" fill="#1D6D95"/>
<path d="M364.037 352.657C363.78 352.486 363.724 352.392 363.868 352.376C364.275 351.415 365.063 351.04 366.231 351.249C366.573 351.313 366.608 351.455 366.335 351.675C365.73 352.164 364.964 352.491 364.037 352.657Z" fill="#0C2836"/>
<path d="M259.566 381.802C257.397 384.386 259.14 386.197 261.077 387.927C261.296 388.126 261.299 388.33 261.085 388.539C259.537 390.068 258.396 391.858 257.662 393.907C257.635 393.984 257.59 394.052 257.532 394.108C257.474 394.165 257.403 394.206 257.326 394.23C257.249 394.255 257.167 394.261 257.088 394.248C257.008 394.235 256.932 394.204 256.866 394.157C251.836 390.575 243.93 386.124 242.853 379.508C242.002 374.325 242.106 370.332 246.823 367.21C252.632 363.362 253.829 363.298 260.844 363.724C261.111 363.741 261.353 363.668 261.567 363.507C261.652 363.443 261.746 363.381 261.848 363.322C262.035 363.215 262.234 363.18 262.443 363.217C267.006 364.038 268.18 368.852 269.698 372.482C269.811 372.744 269.86 373.029 269.841 373.314C269.823 373.599 269.738 373.877 269.594 374.123L267.312 378.011C267.189 378.22 267.009 378.36 266.773 378.43C264.497 379.111 262.769 380.479 261.591 382.534C261.457 382.765 261.296 382.787 261.109 382.599L260.289 381.77C260.037 381.523 259.796 381.534 259.566 381.802Z" fill="#2C2C2C"/>
<path d="M315.297 374.059L316.269 374.091C316.327 374.094 316.385 374.109 316.437 374.135C316.489 374.162 316.535 374.199 316.571 374.245C316.608 374.291 316.634 374.344 316.649 374.401C316.663 374.457 316.665 374.517 316.655 374.574C316.371 375.996 316.513 377.343 317.081 378.615C317.198 378.878 317.249 379.154 317.233 379.444C316.229 396.402 306.836 411.977 305.976 429.217C305.872 431.326 306.836 432.598 307.88 434.28C307.917 434.339 307.94 434.406 307.949 434.475C307.958 434.544 307.953 434.614 307.933 434.68C307.913 434.746 307.88 434.807 307.835 434.859C307.79 434.911 307.734 434.952 307.672 434.98L306.997 435.294C306.675 435.439 306.456 435.345 306.338 435.012C304.313 429.137 304.666 425.491 305.92 419.245C307.647 410.641 310.685 401.988 313.095 393.529C313.794 391.074 313.682 387.863 313.352 384.748C312.854 380.074 313.018 375.419 313.842 370.783C313.928 370.284 314.083 370.26 314.308 370.711C314.758 371.601 314.93 372.532 314.823 373.504C314.815 373.572 314.821 373.641 314.841 373.706C314.861 373.772 314.895 373.833 314.939 373.885C314.984 373.937 315.038 373.979 315.1 374.009C315.161 374.039 315.228 374.056 315.297 374.059Z" fill="#0F3A51"/>
<path d="M299.773 379.42C301.455 394.031 303.089 408.561 304.675 423.012C304.701 423.232 304.653 423.406 304.53 423.535C304.326 423.755 304.206 423.715 304.168 423.414L298.865 380.007C299.074 379.744 299.377 379.548 299.773 379.42Z" fill="#C4C3C5"/>
<path d="M302.332 530.579C298.716 526.957 265.681 541.057 244.48 552.713C219.112 566.661 176.584 594.969 183.816 596.579C191.048 598.189 219.341 583.443 239.659 572.03C258.531 561.43 273.004 552.713 273.004 552.713C273.004 552.713 305.948 534.201 302.332 530.579Z" fill="url(#paint1_linear_1_81)"/>
<path d="M317.177 372.659C317.177 372.659 317.001 374.425 316.373 374.268C315.746 374.111 314.767 374.268 314.767 373.463C314.766 372.658 314.792 372.884 314.766 372.256C314.714 370.99 313.159 369.037 313.561 368.634C314.158 368.036 315.776 368.841 316.373 369.439C316.775 369.841 317.177 370.401 317.177 371.049C317.177 371.451 317.177 372.659 317.177 372.659Z" fill="#B8B8B8"/>
<path d="M313.159 368.232C311.151 369.037 307.133 371.049 307.133 371.049L309.142 375.476C310.868 375.004 312.356 374.671 313.159 374.268C313.963 373.866 313.34 370.868 313.963 370.244C314.699 369.506 315.215 371.022 315.972 370.646C316.478 370.395 316.373 370.244 316.373 369.841C316.373 369.037 313.837 367.96 313.159 368.232Z" fill="#D9D9D9"/>
<path d="M299.774 379.42C299.377 379.548 299.074 379.744 298.866 380.007C295.547 382.035 291.666 383.404 288.637 385.239C282.643 388.866 276.662 392.534 270.695 396.241C270.465 396.386 270.352 396.596 270.357 396.869C270.438 401.972 270.888 407.083 270.398 412.073C269.91 417.058 269.425 422.043 268.943 427.028C267.995 436.807 273.29 444.655 270.213 452.285C270.118 452.528 270.087 452.791 270.124 453.05L276.601 494.75C278.376 507.226 277.621 520.346 277.597 532.942C277.597 533.183 277.68 533.393 277.846 533.57L279.067 534.898C276.389 535.053 273.62 535.976 270.759 537.667C270.829 536.878 270.617 536.202 270.124 535.638C269.942 535.424 269.881 535.182 269.94 534.914C270.775 531.131 271.065 527.319 270.807 523.477C270.502 519.018 267.73 515.806 267.674 511.17C267.626 507.172 267.802 503.089 268.204 498.92L261.318 478.516C261.302 478.473 261.273 478.436 261.235 478.411C261.196 478.386 261.151 478.375 261.105 478.379C261.059 478.382 261.016 478.401 260.982 478.431C260.948 478.462 260.925 478.503 260.916 478.548L256.111 504.554C259.518 516.088 255.75 526.64 252.753 537.787C252.308 539.445 252.584 542.222 253.58 546.118L254.328 550.641C254.348 550.773 254.341 550.908 254.308 551.037C254.275 551.165 254.216 551.286 254.135 551.39L246.863 560.879C244.238 562.248 242.077 562.532 240.379 561.732C240.145 561.621 239.94 561.457 239.781 561.252C239.622 561.048 239.513 560.809 239.463 560.554C239.413 560.3 239.424 560.037 239.493 559.788C239.563 559.538 239.69 559.308 239.865 559.117C241.493 557.335 242.795 555.189 243.77 552.678C244.461 551.881 244.903 551.205 244.951 550.062C245.513 536.797 246.167 523.541 246.911 510.293C246.927 509.981 246.844 509.721 246.662 509.512C246.737 509.26 246.823 509.016 246.919 508.779C247.021 508.533 247.072 508.286 247.072 508.039C247.056 492.553 247.064 477.057 247.096 461.549C247.096 461.281 246.965 461.112 246.702 461.042L245.746 460.809C245.494 460.744 245.369 460.583 245.369 460.326C245.224 452.551 245.856 444.856 247.265 437.242C247.474 436.12 247.407 435.042 247.064 434.006C246.335 431.812 245.572 429.639 244.774 427.487C244.667 427.202 244.479 427.127 244.212 427.261C240.307 429.225 227.234 433.725 226.117 426.94C225.538 423.377 226.312 420.114 228.439 417.152C235.242 407.676 243.379 399.509 252.849 392.652C253.058 392.496 253.262 392.507 253.46 392.684C255.726 394.72 262.547 400.451 263.134 403.284C263.162 403.417 263.144 403.556 263.085 403.677C263.025 403.798 262.926 403.895 262.805 403.952L261.382 404.62C261.104 404.749 260.935 404.964 260.876 405.264C260.225 408.508 258.385 408.572 255.967 410.053C255.921 410.082 255.883 410.12 255.854 410.165C255.825 410.21 255.806 410.261 255.799 410.314C255.793 410.367 255.797 410.421 255.814 410.472C255.83 410.523 255.858 410.569 255.894 410.609L259.189 414.166C259.408 414.402 259.625 414.399 259.84 414.158C261.254 412.58 263.03 411.545 265.167 411.051C265.403 410.998 265.534 411.089 265.561 411.325L266.444 418.722C266.448 418.759 266.465 418.794 266.494 418.82C266.523 418.846 266.56 418.859 266.597 418.858C266.634 418.857 266.669 418.841 266.693 418.814C266.717 418.787 266.729 418.751 266.726 418.714C266.801 416.278 266.908 414.051 267.047 412.033C267.208 409.562 268.654 408.065 268.075 405.119C268.051 404.989 268.059 404.854 268.1 404.727C268.141 404.601 268.212 404.487 268.308 404.395C268.646 404.078 268.799 403.689 268.766 403.228C268.75 402.97 268.614 402.841 268.357 402.841H267.609C267.299 402.841 267.184 402.691 267.264 402.391C268.067 399.421 263.279 394.857 264.355 391.911C264.412 391.753 264.515 391.617 264.652 391.521C264.788 391.424 264.951 391.372 265.119 391.372H267.168C267.451 391.372 267.626 391.232 267.69 390.953L268.75 386.124C268.838 385.719 269.033 385.344 269.314 385.038C269.595 384.733 269.952 384.507 270.349 384.386C279.857 381.456 289.312 377.992 298.713 373.995C298.949 373.968 299.158 373.879 299.34 373.729L306.724 370.622C306.943 370.531 307.155 370.55 307.359 370.679C309.067 371.779 309.713 373.367 309.295 375.443C309.268 375.572 309.209 375.691 309.124 375.791C309.038 375.891 308.928 375.968 308.805 376.015L299.774 379.42Z" fill="#0C2836"/>
<path d="M299.902 381.185C299.735 381.37 299.543 381.479 299.327 381.513C299.057 380.574 298.912 379.963 298.892 379.679C297.565 361.298 295.255 346.099 294.042 327.704C294.042 327.645 294.059 327.605 294.093 327.585C294.167 327.546 294.228 327.546 294.277 327.585C294.302 327.605 294.39 327.651 294.405 327.704C295.08 330 295.118 332.296 295.236 334.067C296.687 350.524 298.619 364.357 299.902 381.185Z" fill="#C4C3C5"/>
<path d="M288.251 536.854C283.028 536.451 279.011 534.841 279.011 534.841L270.574 536.049C270.574 536.049 270.114 539.843 270.574 540.073C271.378 540.476 279.011 541.281 284.635 541.683C286.42 541.811 288.289 542.095 289.055 540.476C289.674 539.166 289.693 536.965 288.251 536.854Z" fill="black"/>
<path d="M253.299 545.707C252.897 545.707 246.469 548.122 245.264 548.927C244.862 549.683 244.609 551.181 244.059 552.146C242.452 554.963 240.5 557.5 239.238 559.39C238.334 560.743 240.732 562.32 242.05 562.61C243.844 563.004 246.871 561.402 247.674 560.195C250.085 556.573 254.434 551.744 254.504 550.939C254.574 550.134 253.825 545.707 253.299 545.707Z" fill="black"/>
<path d="M989 163L989.503 163.91L990.007 164.819" stroke="white" stroke-width="5"/>
</g>
<defs>
<linearGradient id="paint0_linear_1_81" x1="1037.33" y1="133.589" x2="1024.68" y2="182.873" gradientUnits="userSpaceOnUse">
<stop stop-color="#9E9E9E"/>
<stop offset="1" stop-color="#D9D9D9" stop-opacity="0"/>
</linearGradient>
<linearGradient id="paint1_linear_1_81" x1="293.5" y1="535" x2="191.413" y2="591.844" gradientUnits="userSpaceOnUse">
<stop stop-color="#002537"/>
<stop offset="1" stop-color="#105A7F" stop-opacity="0"/>
</linearGradient>
<clipPath id="clip0_1_81">
<rect width="1196" height="628" fill="white"/>
</clipPath>
</defs>
</svg>
