<svg width="108" height="71" viewBox="0 0 108 71" fill="none" xmlns="http://www.w3.org/2000/svg">
<g clip-path="url(#clip0_34_200)">
<path d="M60.1282 70.5488H99.9706C101.237 70.549 102.479 70.2265 103.575 69.614C104.671 69.0014 105.582 68.1204 106.214 67.0594C106.846 65.9984 107.179 64.7949 107.178 63.5699C107.178 62.345 106.844 61.1417 106.211 60.0813L79.4535 15.2197C78.821 14.1589 77.9113 13.2781 76.8155 12.6656C75.7199 12.0531 74.4769 11.7308 73.2116 11.7308C71.9464 11.7308 70.7034 12.0531 69.6078 12.6656C68.5121 13.2781 67.6023 14.1589 66.9699 15.2197L60.1282 26.6982L46.7514 4.2523C46.1185 3.19164 45.2082 2.3109 44.1122 1.69857C43.0163 1.08624 41.7731 0.763878 40.5076 0.763878C39.2422 0.763878 37.999 1.08624 36.903 1.69857C35.807 2.3109 34.8969 3.19164 34.2639 4.2523L0.967758 60.0813C0.334329 61.1417 0.000551296 62.345 6.82344e-07 63.5699C-0.000549932 64.7949 0.332146 65.9984 0.964623 67.0594C1.5971 68.1204 2.50707 69.0014 3.60298 69.614C4.6989 70.2265 5.94213 70.549 7.20764 70.5488H32.2176C42.1268 70.5488 49.4345 66.3355 54.4629 58.1156L66.6709 37.6505L73.2097 26.6982L92.8341 59.5965H66.6709L60.1282 70.5488ZM31.8099 59.5852L14.3561 59.5814L40.5193 15.7196L53.5737 37.6505L44.8333 52.3087C41.4939 57.642 37.7003 59.5852 31.8099 59.5852Z" fill="#00DC82"/>
</g>
<defs>
<clipPath id="clip0_34_200">
<rect width="108" height="71" fill="white"/>
</clipPath>
</defs>
</svg>
