<svg width="82" height="79" viewBox="0 0 82 79" fill="none" xmlns="http://www.w3.org/2000/svg">
<g clip-path="url(#clip0_34_300)">
<path d="M80.4325 31.3481L80.3224 31.056L69.2139 2.21393C68.989 1.6476 68.5889 1.16719 68.0716 0.842229C67.6855 0.596247 67.2469 0.443707 66.791 0.396834C66.335 0.34996 65.8744 0.410058 65.446 0.572311C65.0176 0.734563 64.6333 0.994457 64.324 1.33116C64.0147 1.66786 63.7889 2.07201 63.6648 2.51121L56.1665 25.3606H25.8013L18.303 2.51121C18.1779 2.07267 17.9516 1.66928 17.6422 1.33322C17.3327 0.997162 16.9486 0.737729 16.5205 0.575609C16.0925 0.41349 15.6323 0.353169 15.1767 0.39946C14.721 0.445751 14.2826 0.59737 13.8962 0.842229C13.3789 1.16719 12.9788 1.6476 12.7539 2.21393L1.6506 31.0612L1.53532 31.3481C-0.063239 35.5065 -0.260175 40.0695 0.974197 44.349C2.20857 48.6285 4.80733 52.3926 8.37863 55.0737L8.42055 55.105L8.51487 55.178L25.4135 67.784L33.7974 74.0896L38.8906 77.9231C39.4882 78.3724 40.2166 78.6155 40.9656 78.6155C41.7145 78.6155 42.443 78.3724 43.0406 77.9231L48.1337 74.0896L56.5176 67.784L73.5368 55.105L73.5839 55.0685C77.155 52.3884 79.7541 48.6255 80.9894 44.3471C82.2247 40.0686 82.0292 35.5064 80.4325 31.3481Z" fill="#E24329"/>
<path d="M80.4325 31.3481L80.3225 31.056C74.9101 32.1615 69.8104 34.4448 65.3887 37.7424L40.997 56.1011L56.5281 67.784L73.5473 55.105L73.5944 55.0685C77.1637 52.387 79.7607 48.6235 80.9941 44.3452C82.2274 40.0668 82.0303 35.5053 80.4325 31.3481Z" fill="#FC6D26"/>
<path d="M25.4135 67.784L33.7974 74.0896L38.8905 77.9231C39.4881 78.3724 40.2166 78.6155 40.9655 78.6155C41.7145 78.6155 42.4429 78.3724 43.0405 77.9231L48.1337 74.0896L56.5175 67.784L40.9865 56.1011L25.4135 67.784Z" fill="#FCA326"/>
<path d="M16.5791 37.7424C12.159 34.4464 7.06098 32.1649 1.6506 31.0612L1.53532 31.3481C-0.063239 35.5065 -0.260175 40.0695 0.974196 44.349C2.20857 48.6285 4.80733 52.3926 8.37863 55.0737L8.42055 55.105L8.51487 55.178L25.4135 67.784L40.9551 56.1011L16.5791 37.7424Z" fill="#FC6D26"/>
</g>
<defs>
<clipPath id="clip0_34_300">
<rect width="82" height="79" fill="white"/>
</clipPath>
</defs>
</svg>
